<?xml version="1.0" encoding="UTF-8" standalone="no"?>
<!-- Created with Inkscape (https://www.inkscape.org/) -->

<svg
   xmlns:dc="https://purl.org/dc/elements/1.1/"
   xmlns:cc="https://creativecommons.org/ns#"
   xmlns:rdf="https://www.w3.org/1999/02/22-rdf-syntax-ns#"
   xmlns:svg="https://www.w3.org/2000/svg"
   xmlns="https://www.w3.org/2000/svg"
   xmlns:sodipodi="https://sodipodi.sourceforge.net/DTD/sodipodi-0.dtd"
   xmlns:inkscape="https://www.inkscape.org/namespaces/inkscape"
   width="512"
   height="60"
   id="svg3136"
   version="1.1"
   inkscape:version="0.91 r13725"
   sodipodi:docname="lv2.2.svg">
  <defs
     id="defs3138" />
  <sodipodi:namedview
     id="base"
     pagecolor="#ffffff"
     bordercolor="#666666"
     borderopacity="1.0"
     inkscape:pageopacity="0.0"
     inkscape:pageshadow="2"
     inkscape:zoom="1.8359375"
     inkscape:cx="256"
     inkscape:cy="30"
     inkscape:document-units="px"
     inkscape:current-layer="layer1"
     showgrid="true"
     borderlayer="true"
     inkscape:showpageshadow="false"
     inkscape:window-width="1920"
     inkscape:window-height="1126"
     inkscape:window-x="2560"
     inkscape:window-y="0"
     inkscape:window-maximized="1"
     showguides="true"
     inkscape:guide-bbox="true">
    <inkscape:grid
       type="xygrid"
       id="grid3144"
       empspacing="5"
       visible="true"
       enabled="true"
       snapvisiblegridlinesonly="true"
       color="#f000ff"
       opacity="0.05882353"
       empcolor="#f000ff"
       empopacity="0.11764706"
       spacingx="5"
       spacingy="5" />
    <sodipodi:guide
       position="150,30"
       orientation="0,1"
       id="guide5446" />
  </sodipodi:namedview>
  <metadata
     id="metadata3141">
    <rdf:RDF>
      <cc:Work
         rdf:about="">
        <dc:format>image/svg+xml</dc:format>
        <dc:type
           rdf:resource="https://purl.org/dc/dcmitype/StillImage" />
        <dc:title></dc:title>
      </cc:Work>
    </rdf:RDF>
  </metadata>
  <g
     inkscape:label="Layer 1"
     inkscape:groupmode="layer"
     id="layer1"
     transform="translate(0,-992.3622)">
    <g
       id="g3080"
       style="stroke-width:1.5;stroke-miterlimit:4;stroke-dasharray:none"
       transform="matrix(0,0.66305353,-0.66305353,0,645.61908,643.17984)">
      <path
         id="path2943-2"
         d="m 561.73569,892.17755 -21.28967,12.69464 0.1282,28.59501 20.90498,10.51474"
         style="display:inline;fill:none;stroke:#000000;stroke-width:1.5;stroke-linecap:butt;stroke-linejoin:miter;stroke-miterlimit:4;stroke-dasharray:none;stroke-opacity:1"
         inkscape:connector-curvature="0" />
      <path
         id="path2971"
         d="m 581.75872,603.87991 -19.76988,0"
         style="fill:none;stroke:#9d9d9d;stroke-width:1.5;stroke-linecap:butt;stroke-linejoin:miter;stroke-miterlimit:4;stroke-dasharray:none;stroke-opacity:1"
         inkscape:connector-curvature="0" />
      <path
         sodipodi:nodetypes="cscccscccccc"
         id="path2890"
         d="m 582.26552,944.35911 c 0,0 -0.58089,-296.20953 -0.26096,-338.26733 0.51299,-67.4483 -9.75827,-143.09611 -9.75827,-143.09611 l -0.38154,-1.49417 -0.38145,1.37371 c 0,0 -10.25126,75.64782 -9.73827,143.09612 0.31993,42.0578 -0.26096,338.26733 -0.26096,338.26733 l 3.33301,0 0,20.21988 14.09533,0.12046 0,-20.21989 3.35311,0 z"
         style="fill:none;stroke:#000000;stroke-width:1.5;stroke-linecap:butt;stroke-linejoin:miter;stroke-miterlimit:4;stroke-dasharray:none;stroke-opacity:1"
         inkscape:connector-curvature="0" />
      <path
         id="path2917"
         d="m 582.12768,751.63632 5.25829,8.97601 -5.25829,-0.12823"
         style="fill:none;stroke:#000000;stroke-width:1.5;stroke-linecap:butt;stroke-linejoin:miter;stroke-miterlimit:4;stroke-dasharray:none;stroke-opacity:1"
         inkscape:connector-curvature="0" />
      <path
         id="path2917-0"
         d="m 561.79984,751.76455 -5.25829,8.97601 5.25829,-0.12824"
         style="display:inline;fill:none;stroke:#000000;stroke-width:1.5;stroke-linecap:butt;stroke-linejoin:miter;stroke-miterlimit:4;stroke-dasharray:none;stroke-opacity:1"
         inkscape:connector-curvature="0" />
      <path
         id="path2941"
         d="m 571.99578,751.37987 0,8.46309"
         style="fill:none;stroke:#000000;stroke-width:1.5;stroke-linecap:butt;stroke-linejoin:miter;stroke-miterlimit:4;stroke-dasharray:none;stroke-opacity:1"
         inkscape:connector-curvature="0" />
      <path
         id="path2943"
         d="m 582.25598,892.17755 21.28967,12.69464 -0.1282,28.59501 -20.90498,10.51474"
         style="fill:none;stroke:#000000;stroke-width:1.5;stroke-linecap:butt;stroke-linejoin:miter;stroke-miterlimit:4;stroke-dasharray:none;stroke-opacity:1"
         inkscape:connector-curvature="0" />
      <path
         id="path2967"
         d="m 572.12408,892.04933 0,52.06084"
         style="fill:none;stroke:#000000;stroke-width:1.5;stroke-linecap:butt;stroke-linejoin:miter;stroke-miterlimit:4;stroke-dasharray:none;stroke-opacity:1"
         inkscape:connector-curvature="0" />
      <path
         sodipodi:nodetypes="cc"
         id="path2969"
         d="m 578.94337,944.32907 -14.12183,-0.0609"
         style="fill:none;stroke:#000000;stroke-width:1.5;stroke-linecap:butt;stroke-linejoin:miter;stroke-miterlimit:4;stroke-dasharray:none;stroke-opacity:1"
         inkscape:connector-curvature="0" />
    </g>
    <path
       style="opacity:1;fill:#bd3016;fill-opacity:1;stroke:none;stroke-width:0.80116618;stroke-miterlimit:4;stroke-dasharray:none;stroke-opacity:1"
       d="m 6.4726391,1018.1216 90.2466579,0 0,8.4147 -90.2466579,0 z"
       id="rect4283" />
    <path
       style="opacity:1;fill:#d8d8d8;fill-opacity:1;stroke:#c2c2c2;stroke-width:0.70000005;stroke-miterlimit:4;stroke-dasharray:none;stroke-opacity:1"
       d="m 99.340096,1016.4553 38.330524,0 0,11.4634 -38.330524,0 z"
       id="rect4302" />
    <path
       style="opacity:1;fill:#d8d8d8;fill-opacity:1;stroke:#c2c2c2;stroke-width:0.70000005;stroke-miterlimit:4;stroke-dasharray:none;stroke-opacity:1"
       d="m 163.19849,1016.6479 38.33052,0 0,11.4634 -38.33052,0 z"
       id="rect4302-7" />
    <path
       style="opacity:1;fill:none;fill-opacity:1;stroke:#5d826b;stroke-width:0.49999994;stroke-miterlimit:4;stroke-dasharray:0.49999998, 0.49999998;stroke-dashoffset:0;stroke-opacity:1"
       d="m 211.98728,1017.1326 28.84071,0 c 1.54778,0 2.79383,1.2461 2.79383,2.7939 l 0,5.122 c 0,1.5478 -1.24605,2.7938 -2.79383,2.7938 l -28.84071,0 c -1.54778,0 -2.79383,-1.246 -2.79383,-2.7938 l 0,-5.122 c 0,-1.5478 1.24605,-2.7939 2.79383,-2.7939 z"
       id="rect4285-8" />
    <path
       style="opacity:1;fill:none;fill-opacity:1;stroke:#5d826b;stroke-width:0.49999997;stroke-miterlimit:4;stroke-dasharray:0.49999999, 0.49999999;stroke-dashoffset:0;stroke-opacity:1"
       d="m 248.0948,1017.8232 2.99244,0 c 1.29253,0 2.33309,1.0405 2.33309,2.3331 l 0,4.2773 c 0,1.2925 -1.04056,2.3331 -2.33309,2.3331 l -2.99244,0 c -1.29253,0 -2.33308,-1.0406 -2.33308,-2.3331 l 0,-4.2773 c 0,-1.2926 1.04055,-2.3331 2.33308,-2.3331 z"
       id="rect4285-8-6" />
  </g>
</svg>
